Coordinates
version=1
nRows=60
nColumns=12
inDegrees=yes

Units are S.I. units (second, meters, Newtons, ...)
Angles are in degrees

endheader
time	SC_y	SC_z	SC_x	AC_y	AC_z	AC_x	GH_y	GH_z	GH_yy	EL_x	PS_y
       0.0              -19.03          36.82          63.41          45.72         -15.44         -1.375         -79.38          78.02           90.6          98.05          94.22
  0.007292              -19.03          36.82          63.41          45.72         -15.44         -1.374         -79.38          78.01          90.59          98.04          94.22
   0.01458              -19.04          36.82           63.4          45.72         -15.44         -1.373         -79.37          78.01          90.59          98.04          94.22
   0.02188              -19.04          36.82          63.39          45.72         -15.44         -1.372         -79.37           78.0          90.59          98.04          94.22
   0.02917              -19.04          36.82          63.38          45.72         -15.44         -1.371         -79.36           78.0          90.59          98.04          94.23
   0.03646              -19.04          36.82          63.37          45.72         -15.44          -1.37         -79.36          77.99          90.59          98.04          94.23
   0.04375              -19.05          36.82          63.36          45.72         -15.44         -1.369         -79.35          77.99          90.58          98.04          94.23
   0.05104              -19.05          36.82          63.35          45.72         -15.44         -1.368         -79.35          77.98          90.58          98.04          94.23
   0.05834              -19.05          36.81          63.33          45.72         -15.44         -1.366         -79.34          77.97          90.58          98.04          94.24
   0.06563              -19.06          36.81          63.32          45.72         -15.45         -1.365         -79.34          77.96          90.57          98.04          94.24
   0.07292              -19.06          36.81          63.31          45.72         -15.45         -1.363         -79.33          77.95          90.57          98.04          94.25
   0.08021              -19.06          36.81          63.29          45.72         -15.45         -1.362         -79.32          77.94          90.57          98.04          94.25
   0.08751              -19.07          36.81          63.28          45.72         -15.45          -1.36         -79.32          77.93          90.56          98.03          94.26
    0.0948              -19.07          36.81          63.26          45.72         -15.45         -1.358         -79.31          77.92          90.56          98.03          94.26
    0.1021              -19.08           36.8          63.24          45.72         -15.45         -1.356          -79.3          77.91          90.55          98.03          94.27
    0.1094              -19.08           36.8          63.22          45.72         -15.45         -1.353         -79.29           77.9          90.55          98.03          94.27
    0.1167              -19.09           36.8          63.19          45.72         -15.45         -1.351         -79.28          77.88          90.54          98.03          94.28
     0.124               -19.1           36.8          63.17          45.72         -15.45         -1.348         -79.27          77.87          90.53          98.03          94.29
    0.1313               -19.1          36.79          63.14          45.72         -15.45         -1.345         -79.25          77.85          90.53          98.02          94.29
    0.1386              -19.11          36.79          63.11          45.72         -15.45         -1.342         -79.24          77.83          90.52          98.02           94.3
    0.1458              -19.12          36.79          63.08          45.72         -15.45         -1.338         -79.22          77.81          90.51          98.02          94.31
    0.1531              -19.13          36.78          63.04          45.72         -15.45         -1.334         -79.21          77.79           90.5          98.02          94.32
    0.1604              -19.14          36.78           63.0          45.72         -15.45          -1.33         -79.19          77.77          90.49          98.01          94.33
    0.1677              -19.15          36.77          62.96          45.73         -15.45         -1.325         -79.17          77.74          90.48          98.01          94.35
     0.175              -19.17          36.77          62.91          45.73         -15.45         -1.319         -79.14          77.71          90.47          98.01          94.36
    0.1823              -19.18          36.76          62.86          45.73         -15.45         -1.313         -79.12          77.68          90.46           98.0          94.38
    0.1896               -19.2          36.75           62.8          45.73         -15.46         -1.306         -79.09          77.64          90.44           98.0          94.39
    0.1969              -19.21          36.75          62.73          45.73         -15.46         -1.299         -79.06           77.6          90.42          97.99          94.41
    0.2042              -19.24          36.74          62.65          45.73         -15.46          -1.29         -79.02          77.55           90.4          97.99          94.44
    0.2115              -19.26          36.73          62.56          45.73         -15.46          -1.28         -78.98          77.49          90.38          97.98          94.46
    0.2188              -19.29          36.72          62.46          45.73         -15.46         -1.269         -78.93          77.43          90.36          97.97          94.49
    0.2261              -19.32           36.7          62.34          45.73         -15.47         -1.256         -78.88          77.36          90.33          97.97          94.52
    0.2333              -19.35          36.69          62.21          45.74         -15.47         -1.242         -78.81          77.28          90.29          97.96          94.56
    0.2406              -19.39          36.67          62.06          45.74         -15.47         -1.224         -78.74          77.18          90.25          97.94          94.61
    0.2479              -19.44          36.65          61.87          45.74         -15.48         -1.204         -78.66          77.07          90.21          97.93          94.66
    0.2552               -19.5          36.63          61.66          45.75         -15.48          -1.18         -78.55          76.94          90.15          97.91          94.72
    0.2625              -19.56           36.6          61.41          45.75         -15.48         -1.152         -78.43          76.78          90.09          97.89          94.79
    0.2698              -19.65          36.56           61.1          45.75         -15.49         -1.118         -78.29           76.6          90.01          97.87          94.88
    0.2771              -19.74          36.52          60.73          45.76          -15.5         -1.077         -78.12          76.37          89.92          97.84          94.99
    0.2844              -19.86          36.47          60.28          45.77         -15.51         -1.027         -77.91          76.09          89.81          97.81          95.12
    0.2917              -20.01          36.41          59.73          45.77         -15.52        -0.9656         -77.64          75.75          89.67          97.77          95.28
     0.299              -20.19          36.33          59.04          45.78         -15.53        -0.8887         -77.32          75.33          89.49          97.72          95.48
    0.3063              -20.43          36.23          58.16           45.8         -15.55        -0.7917         -76.91          74.79          89.27          97.65          95.73
    0.3136              -20.72          36.11          57.05          45.81         -15.57        -0.6684         -76.38          74.11          88.99          97.57          96.05
    0.3209               -21.1          35.95          55.63          45.84          -15.6        -0.5107         -75.71          73.23          88.63          97.46          96.46
    0.3281              -21.58          35.75          53.81          45.86         -15.64        -0.3082         -74.85          72.11          88.17          97.33          96.99
    0.3354               -22.2          35.48          51.48           45.9         -15.69       -0.04956         -73.76          70.68          87.58          97.15          97.66
    0.3427              -22.98          35.16          48.56          45.94         -15.75         0.2756         -72.38          68.88          86.84          96.93           98.5
      0.35              -23.92          34.76          44.99           46.0         -15.82         0.6719          -70.7          66.69          85.94          96.66          99.53
    0.3573              -25.02          34.29          40.85          46.06         -15.91          1.131         -68.75          64.14           84.9          96.36          100.7
    0.3646              -26.21          33.79          36.38          46.13          -16.0          1.629         -66.64          61.39          83.77          96.02          102.0
    0.3719               -27.4          33.29           31.9          46.19         -16.09          2.126         -64.53          58.64          82.63          95.68          103.3
    0.3792              -28.49          32.82          27.77          46.26         -16.18          2.585         -62.58           56.1          81.59          95.37          104.5
    0.3865              -29.44          32.42           24.2          46.31         -16.25          2.982          -60.9           53.9          80.69          95.11          105.5
    0.3938              -30.22          32.09          21.27          46.36         -16.31          3.307         -59.52           52.1          79.95          94.89          106.4
    0.4011              -30.83          31.83          18.95          46.39         -16.36          3.565         -58.42          50.67          79.36          94.71          107.0
    0.4084              -31.32          31.63          17.12          46.42          -16.4          3.768         -57.56          49.55           78.9          94.58          107.6
    0.4157               -31.7          31.47           15.7          46.44         -16.43          3.926         -56.89          48.68          78.54          94.47          108.0
    0.4229              -31.99          31.34          14.59          46.46         -16.45          4.049         -56.37          47.99          78.26          94.39          108.3
    0.4302              -32.22          31.25          13.72          46.47         -16.47          4.146         -55.96          47.46          78.04          94.32          108.6
